<svg xmlns="http://www.w3.org/2000/svg" viewBox="0 0 100 100" fill="none"><path fill-rule="evenodd" clip-rule="evenodd" d="M18.115 19.167c-6.967.548-12.234 6.213-12.573 13.194C5.262 38.113 5 44.731 5 49.301c0 4.62.269 11.34.552 17.136.336 6.892 5.482 12.52 12.352 13.154C25.51 80.293 36.514 81 50 81c13.45 0 24.433-.703 32.036-1.403 6.897-.636 12.053-6.3 12.385-13.219.293-6.103.579-13.087.579-17.077 0-3.948-.28-10.825-.57-16.881-.334-7.008-5.609-12.71-12.603-13.257C74.34 18.576 63.543 18 50 18c-13.578 0-24.396.579-31.885 1.167zM41 35.943l23.2 13.358L41 62.658V35.943z" fill="#000"/></svg>